<?xml version="1.0" encoding="UTF-8"?>
<svg viewBox="0 0 720 300" xmlns="http://www.w3.org/2000/svg" font-family="Arial, sans-serif" font-size="12">
  <rect x="40" y="20" width="640" height="240" rx="8" fill="#FCFBF8" stroke="#D9D6CE"/>
  <text x="52" y="40" fill="#6B6862">"meaning space" (shown in 2D — really 1,536D)</text>
  <ellipse cx="180" cy="150" rx="95" ry="70" fill="#EDF3FA" stroke="#1A5FA5" stroke-dasharray="5,4"/>
  <text x="180" y="95" text-anchor="middle" fill="#1A5FA5" font-weight="bold">animals</text>
  <circle cx="150" cy="140" r="4" fill="#1A5FA5"/><text x="158" y="138" fill="#21201C">dog</text>
  <circle cx="205" cy="130" r="4" fill="#1A5FA5"/><text x="213" y="128" fill="#21201C">puppy</text>
  <circle cx="165" cy="180" r="4" fill="#1A5FA5"/><text x="173" y="184" fill="#21201C">cat</text>
  <circle cx="215" cy="175" r="4" fill="#1A5FA5"/><text x="223" y="179" fill="#21201C">kitten</text>
  <ellipse cx="540" cy="160" rx="105" ry="62" fill="#FBEEE9" stroke="#C15F3C" stroke-dasharray="5,4"/>
  <text x="540" y="112" text-anchor="middle" fill="#C15F3C" font-weight="bold">car parts</text>
  <circle cx="510" cy="150" r="4" fill="#C15F3C"/><text x="518" y="148" fill="#21201C">carburetor</text>
  <circle cx="575" cy="145" r="4" fill="#C15F3C"/><text x="583" y="143" fill="#21201C">engine</text>
  <circle cx="530" cy="185" r="4" fill="#C15F3C"/><text x="538" y="189" fill="#21201C">tire</text>
  <line x1="230" y1="150" x2="435" y2="158" stroke="#8A867C" stroke-dasharray="3,4"/>
  <text x="330" y="145" text-anchor="middle" fill="#6B6862">far apart = unrelated</text>
</svg>
