<?xml version="1.0" encoding="UTF-8"?>
<svg viewBox="0 0 720 260" xmlns="http://www.w3.org/2000/svg" font-family="Arial, sans-serif" font-size="12">
  <defs><marker id="s" viewBox="0 0 10 10" refX="8" refY="5" markerWidth="7" markerHeight="7" orient="auto"><path d="M0,0 L10,5 L0,10 z" fill="#C15F3C"/></marker></defs>
  <text x="120" y="28" text-anchor="middle" fill="#6B6862">raw logits (any size)</text>
  <line x1="40" y1="210" x2="240" y2="210" stroke="#D9D6CE"/>
  <rect x="60" y="90" width="40" height="120" fill="#B7C7D8"/><text x="80" y="228" text-anchor="middle">2.0</text>
  <rect x="120" y="150" width="40" height="60" fill="#B7C7D8"/><text x="140" y="228" text-anchor="middle">1.0</text>
  <rect x="180" y="200" width="40" height="10" fill="#B7C7D8"/><text x="200" y="228" text-anchor="middle">0.0</text>
  <rect x="290" y="120" width="120" height="52" rx="10" fill="#F5E8DC" stroke="#C15F3C" stroke-width="1.5"/>
  <text x="350" y="151" text-anchor="middle" fill="#C15F3C" font-weight="bold">softmax</text>
  <line x1="245" y1="146" x2="288" y2="146" stroke="#C15F3C" stroke-width="2" marker-end="url(#s)"/>
  <line x1="412" y1="146" x2="455" y2="146" stroke="#C15F3C" stroke-width="2" marker-end="url(#s)"/>
  <text x="595" y="28" text-anchor="middle" fill="#6B6862">probabilities — sum to 1</text>
  <line x1="470" y1="210" x2="700" y2="210" stroke="#D9D6CE"/>
  <line x1="470" y1="60" x2="700" y2="60" stroke="#D9D6CE" stroke-dasharray="3,3"/><text x="452" y="64" fill="#6B6862" text-anchor="end">1.0</text>
  <rect x="500" y="110" width="46" height="100" fill="#C15F3C"/><text x="523" y="103" text-anchor="middle" fill="#C15F3C" font-weight="bold">0.665</text>
  <rect x="566" y="173" width="46" height="37" fill="#D98A5F"/><text x="589" y="166" text-anchor="middle">0.245</text>
  <rect x="632" y="197" width="46" height="13" fill="#D98A5F"/><text x="655" y="190" text-anchor="middle">0.090</text>
</svg>
