<?xml version="1.0" encoding="UTF-8"?>
<svg viewBox="0 0 740 160" xmlns="http://www.w3.org/2000/svg" font-family="Arial, sans-serif" font-size="12">
  <defs><marker id="a8" viewBox="0 0 10 10" refX="8" refY="5" markerWidth="6" markerHeight="6" orient="auto"><path d="M0,0 L10,5 L0,10 z" fill="#8A867C"/></marker></defs>
  <rect x="10" y="30" width="110" height="44" rx="8" fill="#F4F3EE" stroke="#8A867C"/><text x="65" y="56" text-anchor="middle" font-weight="bold">Retrieve</text>
  <rect x="180" y="30" width="140" height="44" rx="8" fill="#F4F3EE" stroke="#8A867C"/><text x="250" y="50" text-anchor="middle" font-weight="bold">Grade retrieval</text><text x="250" y="66" text-anchor="middle" fill="#6B6862">relevant &amp; sufficient?</text>
  <rect x="390" y="30" width="120" height="44" rx="8" fill="#F5E8DC" stroke="#C15F3C"/><text x="450" y="56" text-anchor="middle" font-weight="bold">Generate ✓</text>
  <rect x="180" y="104" width="230" height="40" rx="8" fill="#fff" stroke="#6B3FA0" stroke-dasharray="5,4"/><text x="295" y="128" text-anchor="middle" fill="#6B3FA0">rewrite query / web-search fallback</text>
  <line x1="120" y1="52" x2="176" y2="52" stroke="#8A867C" stroke-width="2" marker-end="url(#a8)"/>
  <line x1="320" y1="52" x2="386" y2="52" stroke="#8A867C" stroke-width="2" marker-end="url(#a8)"/><text x="353" y="44" text-anchor="middle" fill="#2E6B2E">good</text>
  <line x1="250" y1="74" x2="250" y2="100" stroke="#6B3FA0" stroke-width="2" marker-end="url(#a8)"/><text x="270" y="92" fill="#6B3FA0">weak</text>
  <path d="M180,124 C90,124 65,90 65,78" stroke="#6B3FA0" stroke-width="1.5" fill="none" marker-end="url(#a8)"/>
  <text x="560" y="52" fill="#6B6862">CRAG: grade retrieval, retry/fallback</text>
  <text x="560" y="72" fill="#6B6862">Self-RAG: model critiques its own</text>
  <text x="560" y="90" fill="#6B6862">answer for groundedness</text>
  <text x="560" y="120" fill="#C15F3C" font-weight="bold">Always BOUND the loop</text>
  <text x="560" y="138" fill="#6B6862">(≤2 retries, then answer honestly)</text>
</svg>
